<?xml version="1.0" encoding="iso-8859-1"?>
<!-- Uploaded to: SVG Repo, www.svgrepo.com, Generator: SVG Repo Mixer Tools -->
<svg version="1.1" id="Layer_1" xmlns="http://www.w3.org/2000/svg" xmlns:xlink="http://www.w3.org/1999/xlink" 
	 viewBox="0 0 512 512" xml:space="preserve">
<g>
	<path style="fill:#434A54;" d="M170.688,375.109v-24.281h-21.312v24.281c0,0.078-0.031,0.156-0.031,0.219
		c0,5.906,4.781,10.672,10.688,10.672c5.875,0,10.656-4.766,10.656-10.672C170.688,375.266,170.688,375.188,170.688,375.109z"/>
	<rect x="321.53" y="226" style="fill:#434A54;" width="158.47" height="21.328"/>
</g>
<path style="fill:#FFCE54;" d="M512,236.672c0,17.672-14.312,32-32,32c-17.656,0-32-14.328-32-32s14.344-32,32-32
	C497.688,204.672,512,219,512,236.672z"/>
<g>
	<path style="fill:#DA4453;" d="M121.312,434l-81.875-44.453l55-134.016l88.094,51.797C182.531,307.328,144.094,312.375,121.312,434
		z"/>
	<path style="fill:#DA4453;" d="M288.125,216.781c73.656,21.125-138.781,114.094-138.781,114.094S10.562,293.422,10.562,216.781
		C10.562,140.125,72.688,78,149.344,78C192,78,180.875,186,288.125,216.781z"/>
</g>
<path style="fill:#ED5565;" d="M170.688,119.328c-77,0-142.938,48.469-170.688,117.344C27.75,305.547,93.688,354,170.688,354
	c76.969,0,142.938-48.453,170.656-117.328C313.625,167.797,247.656,119.328,170.688,119.328z"/>
<g>
	<path style="fill:#FFCE54;" d="M227.25,255.531l-37.719-37.719c-4.156-4.172-10.906-4.172-15.094,0l-15.062,15.078l-30.188-30.156
		c-4.156-4.172-10.906-4.172-15.094,0c-4.156,4.156-4.156,10.906,0,15.078l37.719,37.719c4.188,4.156,10.938,4.156,15.094,0
		L182,240.438l30.156,30.172c4.156,4.172,10.938,4.172,15.094,0S231.406,259.688,227.25,255.531z"/>
	<path style="fill:#FFCE54;" d="M404.969,247.328c-0.719,10.203-2.469,19.859-5.094,27.906c-1.781,5.484-3.656,9.281-5.188,11.75
		c-1.562-2.469-3.406-6.266-5.219-11.75c-3.531-10.812-5.469-24.516-5.469-38.562c0-14.062,1.938-27.75,5.469-38.562
		c1.812-5.5,3.656-9.281,5.219-11.75c1.531,2.469,3.406,6.25,5.188,11.75c2.625,8.047,4.375,17.688,5.094,27.891h21.375
		c-2.219-36.188-15.562-64-31.656-64c-17.688,0-32,33.438-32,74.672s14.312,74.656,32,74.656c16.094,0,29.438-27.812,31.656-64
		h-21.375V247.328z"/>
</g>
</svg>